<svg width="853" height="718" viewBox="0 0 853 718" fill="none" xmlns="http://www.w3.org/2000/svg">
<path d="M667.5 306C729.333 252.333 852.8 122.2 852 31C850 23 843.4 9.40001 833 19C834.833 10.3333 825.5 -8 788 5.99998C779.5 10.5 741.7 30.3 700.5 53.5C691.833 58 667.5 68 617.5 83.5C507 129.667 261.3 253.9 162.5 381.5C135 415.333 83.6 502 98 578C98.8333 581.833 98.6 590.5 91 594.5C59 605.5 -3.79999 645.5 1.00001 717.5C4.16667 705.667 17.1 679.9 43.5 671.5C52.5 670.667 70.7 667 71.5 659C81.8333 659.333 104.2 656.2 111 641C113.167 645.667 123.1 653.8 145.5 649C149.333 650.667 159 653.8 167 653C168.5 652.167 171.8 651.8 173 657C174.167 657.833 178.2 660 185 662C186.5 661.833 189.6 662.5 190 666.5C189.833 668.833 191.8 672.8 201 670C202.167 669.167 205.1 669.3 207.5 676.5C211.833 684.167 221.1 698.3 223.5 693.5C225.9 688.7 224.5 693.167 223.5 696C225.667 691.667 225.5 676.2 207.5 649C195 630.833 162.1 593.4 130.5 589C128 588.5 123.9 584.9 127.5 574.5C132.833 554.667 165.3 509.5 252.5 487.5C326.5 470.5 503 417.7 617 342.5C617.667 371.333 621.2 433.2 630 450C633.5 463.667 640.4 498 640 526C637.667 540.5 635.8 564.7 647 545.5C656.833 517.833 677.7 450.1 682.5 400.5C684.333 383.833 683.9 341.6 667.5 306Z" stroke="black"/>
</svg>
